<?xml version="1.0" encoding="UTF-8"?>
<svg xmlns="http://www.w3.org/2000/svg" viewBox="0 0 100 100">
  <!-- Soleil -->
  <circle cx="60" cy="40" r="20" fill="#FFD700"/>
  <g stroke="#FFD700" stroke-width="4">
    <!-- Rayons du soleil -->
    <line x1="60" y1="10" x2="60" y2="15"/>
    <line x1="60" y1="65" x2="60" y2="70"/>
    <line x1="85" y1="40" x2="90" y2="40"/>
    <line x1="30" y1="40" x2="35" y2="40"/>
    <line x1="77" y1="23" x2="81" y2="19"/>
    <line x1="39" y1="61" x2="43" y2="57"/>
    <line x1="77" y1="57" x2="81" y2="61"/>
    <line x1="39" y1="19" x2="43" y2="23"/>
  </g>
  
  <!-- Nuage -->
  <path d="M25,45 Q25,35 35,35 Q35,25 45,25 Q55,25 55,35 Q65,35 65,45 Q65,55 55,55 L35,55 Q25,55 25,45" 
        fill="#ffffff" 
        stroke="#e0e0e0" 
        stroke-width="2"/>
</svg>